<svg xmlns="http://www.w3.org/2000/svg" version="1.1" xmlns:xlink="http://www.w3.org/1999/xlink" xmlns:svgjs="http://svgjs.dev/svgjs" width="1500" height="1500" viewBox="0 0 1500 1500"><rect width="1500" height="1500" fill="#000000"></rect><g transform="matrix(0.6666666666666666,0,0,0.6666666666666666,250.00000000000017,187.66666666666674)"><svg viewBox="0 0 320 360" data-background-color="#ffffff" preserveAspectRatio="xMidYMid meet" height="1687" width="1500" xmlns="http://www.w3.org/2000/svg" xmlns:xlink="http://www.w3.org/1999/xlink"><g id="tight-bounds" transform="matrix(1,0,0,1,0,0)"><svg viewBox="0 0 320 360" height="360" width="320"><g><svg></svg></g><g><svg viewBox="0 0 320 360" height="360" width="320"><g><path d="M20.961 227.22l3.726 4.658-1.863-6.056c-0.466-2.795-3.726 0.466-1.863 1.398M25.153 224.425c1.397 2.329 2.795 4.658 2.795 6.987 0 3.261 2.795 4.658 5.123 5.589-3.261-3.726-5.124-13.974-7.918-12.576M204.017 26.929c7.918 0 15.371-0.932 23.756 0.931 20.495 5.124 37.729 15.371 49.374 29.811l32.606 52.169c1.397 13.042 4.192 27.482 3.726 43.319 3.261 0 2.795-4.658 6.521-5.59-3.726 9.316-5.59 20.961-6.521 34.469-2.329-7.453 0-18.632 0.466-24.687-3.261 5.124-5.124 1.397-5.124-0.932 0.466-3.726-1.397-3.261-2.795-4.658-5.124-4.658-8.384-9.782-12.11-17.7 2.329-6.055 2.795-14.905-4.658-19.563-2.329-1.397-5.124-3.726-6.521-7.453-1.863-5.124-5.124-11.179-4.193-19.097 0.466-2.329-6.987 5.124-11.179 1.863-18.166-12.576-36.332-27.016-58.224-39.127-11.645 0-20.029-4.192-24.221-9.316-3.726-4.658-0.932-10.713 4.658-11.179 3.261 0 6.987-0.932 9.782 0.932 0.466-1.863 2.329-4.192 4.657-4.192M157.904 16.215l0.932 0.466c4.658 0.932 6.987 7.453 12.11 5.124 0 3.261 0.466 6.521-0.466 8.85-1.397 3.726-5.59 3.726-8.85 3.726-31.208-1.863-49.374 11.179-68.471 22.358-5.124 3.261-10.713 5.59-14.906 9.782-20.029 18.632-41.921 35.866-47.045 70.335l-4.192 38.195c-0.466 4.192-5.124 8.384-4.192 13.508l3.26 22.824c-3.261-3.261-5.124 0.932-4.192 2.795 0.466 1.397 2.329 6.055 5.124 1.863 3.726 6.987 7.453 20.495 12.576 26.55 15.837 18.632 36.332 35.4 53.101 52.169 4.192-0.932 7.453-0.932 8.384-3.727 1.397 2.795-1.397 5.59-3.726 6.056 7.453 4.658 15.837 8.85 27.016 9.781 14.44 0.932 27.948 3.261 40.524 6.522 6.521-1.863 13.042-2.795 20.029-3.261 2.329 0 3.726-3.726 6.521-4.658l0.466-4.658c2.795 4.192 2.329-1.397 0.466-4.192 3.261 2.795 4.192 5.124 5.589 6.987 0-1.397 3.726-6.521 3.727-0.466l0.931-6.055c1.397-0.932 1.863 5.124 3.261 0.931 1.397-4.192 4.192-0.932 6.987-2.329-0.932 1.863-0.466 5.59 2.794 3.261l3.727-3.261c2.329 5.59 6.055 3.261 7.918 2.329 20.495-13.042 40.99-28.413 60.553-43.784l-0.466 6.055 2.329-7.453c2.329 2.329 4.192 0.466 5.124-0.931 2.795-4.658 6.521-9.316 12.577-13.508-7.453 20.029-16.303 35.866-27.482 48.908l-4.658 5.59c0 3.261-0.932 7.453-4.658 7.918-1.863 0.466-5.59-0.932-8.384 1.863-1.397 1.863 3.261 5.59-0.466 2.795-3.261-2.329-6.521 0-10.248 0.932-2.795 0.932 1.863 3.726 2.795 5.589 0.932 1.863 1.863 3.726 1.398 6.056l-5.124-5.59c-6.055 3.261-9.782 9.316-14.906 13.974-2.329 1.863-1.397 5.124-1.397 7.918-3.261 0-6.987-0.932-8.85 0.932-1.397 1.863-0.932 4.658-0.932 7.453-4.658-0.466-5.124-7.453-9.315-6.056-4.192 0.932-8.85 1.397-12.577 3.727 2.795 5.59-4.658 2.329-3.726 3.26-6.987-4.192-13.042-7.453-20.495-4.658-15.837-5.124-35.4-2.795-49.84-0.931 0-2.329 0.466-4.658-0.466-5.124-0.932 2.329-3.726 1.397-3.26 1.397-8.85-6.055-17.7-9.782-27.016-14.905-8.384 0.932-16.303-3.261-18.632-5.59-6.521-6.055-13.974-2.795-20.029-4.192-13.042-3.261-17.7-16.769-19.098-26.084-0.932-4.658-4.658-6.521-6.055-6.056-6.055-19.563-15.371-37.263-22.824-55.429-1.863-4.658-1.397-9.316-1.397-14.44 2.329 0.932 4.658 0.466 4.192-2.794-2.329-15.371-7.918-27.016-13.974-38.195 3.261-15.837 3.726-34.469 11.179-48.443 6.521-12.576 18.632-19.098 27.016-29.811 2.795-3.726 2.795-8.85 5.59-12.11 9.316-9.316 18.632-19.098 28.879-27.482 4.658-3.726 10.247 0 17.234-1.397 2.329-8.384 11.645-15.837 20.495-13.508 3.726 0.932 11.179-8.85 13.508-9.782 3.726-1.397 1.863 3.726 1.863 6.987 8.85-6.987 20.961-10.713 32.14-14.906" fill="#ffffff" fill-rule="nonzero" stroke="none" stroke-width="1" stroke-linecap="butt" stroke-linejoin="miter" stroke-miterlimit="10" stroke-dasharray="" stroke-dashoffset="0" font-family="none" font-weight="none" font-size="none" text-anchor="none" style="mix-blend-mode: normal" data-fill-palette-color="tertiary"></path></g><g transform="matrix(1,0,0,1,64,98.19859759949463)"><svg viewBox="0 0 192 163.60280480101073" height="163.60280480101073" width="192"><g><svg viewBox="0 0 192 163.60280480101073" height="163.60280480101073" width="192"><g><svg viewBox="0 0 192 163.60280480101073" height="163.60280480101073" width="192"><g id="textblocktransform"><svg viewBox="0 0 192 163.60280480101073" height="163.60280480101073" width="192" id="textblock"><g><svg viewBox="0 0 192 163.60280480101073" height="163.60280480101073" width="192"><path d="M191.55 35.09C190.648 18.108 188.075 13.387 188.075 13.387 180.177-4.105 170.321-0.335 161.466 2.179 145.832 2.281 130.262 6.017 114.664 8.021 81.926 8.326 48.907 3.3 16.331 15.696 13.271 19.5-3.175 16.444 0.544 37.263 1.519 45.924 5.075 55.536 4.967 63.483 5.455 64.876 6.132 61.683 6.42 63.687 7.431 69.087 9.083 66.54 10.437 69.733 8.551 78.258 9.905 85.356 11.195 92.794 8.921 94.73 6.005 93.813 4.696 100.232 4.561 104.885 3.83 104.002 3.027 103.798 2.44 103.663 1.257 104.172 1.456 105.633 2.133 110.625-0.774 113.512 1.05 118.403-0.205 123.701 1.916 128.286 1.627 134.026 1.591 135.181 1.79 136.166 2.106 136.438 3.505 137.898 1.465 140.751 1.682 143.842 16.033 164.967 31.604 150.363 46.308 160.077 50.126 153.284 47.256 162.488 48.781 161.062 49.972 159.397 50.839 166.292 52.184 162.386 52.392 161.265 52.076 158.616 52.816 159.126 53.204 159.397 53.547 159.329 53.601 157.767 53.682 155.424 52.969 156.884 52.78 155.661 54.829 149.48 54.323 164.186 56.246 163.575 56.156 161.775 55.596 159.193 56.742 159.533 57.88 156.952 57.916 154.812 58.927 160.62 58.963 161.877 59.143 162.76 59.432 163.371 62.591 157.054 65.732 165.613 69.045 162.76 71.076 159.635 73.026 164.458 75.084 163.269 75.806 162.318 76.537 160.62 77.232 163.473 85.744 164.084 94.815 161.537 102.885 163.575 124.449 159.771 147.493 165.137 170.23 160.111 175.592 158.175 181.161 155.424 186.387 153.216 186.387 153.216 190.621 147.17 190.621 119.999S191.523 96.225 191.659 74.59C191.794 52.955 192.426 52.072 191.523 35.09Z" opacity="1" fill="#ffffff" data-fill-palette-color="tertiary"></path><g transform="matrix(1,0,0,1,27.072000000000003,19.1)"><svg width="137.856" viewBox="2.44 -35.16 38.650000000000006 35.16" height="125.40280480101073" data-palette-color="#ffffff"><path d="M2.44 0L2.44 0Q2.59-0.61 2.7-1.48 2.81-2.34 2.81-3.27L2.81-3.27Q2.81-4.13 2.69-4.94 2.56-5.76 2.44-6.35L2.44-6.35Q3.54-6.35 4.37-6.52 5.2-6.69 5.76-7.09 6.32-7.5 6.6-8.19 6.88-8.89 6.88-9.94L6.88-9.94Q6.88-11.99 6.77-13.45 6.67-14.92 6.46-15.87 6.25-16.82 5.93-17.32 5.62-17.82 5.2-17.94L5.2-17.94Q5.64-18.09 5.96-18.41 6.27-18.73 6.48-19.49 6.69-20.26 6.79-21.62 6.88-22.97 6.88-25.22L6.88-25.22Q6.88-26.27 6.6-26.97 6.32-27.66 5.76-28.06 5.2-28.47 4.37-28.64 3.54-28.81 2.44-28.81L2.44-28.81Q2.56-29.39 2.69-30.21 2.81-31.03 2.81-31.88L2.81-31.88Q2.81-32.81 2.7-33.68 2.59-34.55 2.44-35.16L2.44-35.16Q2.76-35.03 3.69-34.91 4.61-34.79 5.87-34.7 7.13-34.62 8.59-34.55 10.06-34.47 11.47-34.41 12.89-34.35 14.12-34.33 15.36-34.3 16.16-34.3L16.16-34.3Q18.48-34.3 20.86-34.34 23.24-34.38 25.31-34.47 27.37-34.57 28.91-34.74 30.44-34.91 31.08-35.16L31.08-35.16Q31.1-34.67 31.43-34.12 31.76-33.57 32.29-33.02 32.81-32.47 33.47-31.96 34.13-31.45 34.8-31.05 35.47-30.66 36.11-30.42 36.74-30.18 37.23-30.15L37.23-30.15Q37.06-29.81 36.93-29.15 36.79-28.49 36.69-27.69 36.6-26.88 36.55-25.99 36.5-25.1 36.5-24.29L36.5-24.29Q36.5-23.36 36.54-22.47 36.57-21.58 36.65-20.8 36.72-20.02 36.87-19.37 37.01-18.73 37.23-18.31L37.23-18.31Q36.38-18.16 35.45-17.85 34.52-17.53 33.62-17.08 32.71-16.63 31.91-16.06 31.1-15.5 30.52-14.87L30.52-14.87Q30.88-14.36 31.38-13.92 31.88-13.48 32.42-13.17 32.96-12.87 33.52-12.7 34.08-12.52 34.57-12.52L34.57-12.52Q34.57-11.06 35.02-9.91 35.47-8.76 36.3-7.97 37.13-7.18 38.33-6.76 39.53-6.35 41.04-6.35L41.04-6.35Q40.82-5.76 40.75-4.94 40.67-4.13 40.67-3.27L40.67-3.27Q40.67-2.34 40.77-1.48 40.87-0.61 41.09 0L41.09 0Q40.84-0.1 40.14-0.21 39.43-0.32 38.51-0.4 37.6-0.49 36.62-0.55 35.64-0.61 34.86-0.61L34.86-0.61Q33.94-0.61 32.81-0.59 31.69-0.56 30.62-0.5 29.54-0.44 28.65-0.32 27.76-0.2 27.29 0L27.29 0Q27.34-0.49 27.37-0.96 27.39-1.44 27.39-1.9L27.39-1.9Q27.39-2.91 27.25-3.82 27.1-4.74 26.76-5.51 26.42-6.27 25.88-6.85 25.34-7.42 24.56-7.74L24.56-7.74Q24.78-8.15 24.95-8.86 25.12-9.57 25.12-10.84L25.12-10.84Q25.12-11.52 24.9-12.13 24.68-12.74 24.13-13.18 23.58-13.62 22.68-13.88 21.78-14.14 20.41-14.14L20.41-14.14Q19.82-14.14 18.99-14.09 18.16-14.04 17.24-13.92L17.24-13.92Q16.97-13.26 16.82-12.34 16.67-11.43 16.67-9.94L16.67-9.94Q16.67-8.89 16.91-8.19 17.14-7.5 17.68-7.09 18.21-6.69 19.06-6.52 19.9-6.35 21.12-6.35L21.12-6.35Q21-5.76 20.87-4.94 20.75-4.13 20.75-3.27L20.75-3.27Q20.75-2.34 20.86-1.48 20.97-0.61 21.12 0L21.12 0Q20.41-0.15 19.34-0.26 18.26-0.37 16.99-0.45 15.72-0.54 14.38-0.57 13.04-0.61 11.79-0.61L11.79-0.61Q10.55-0.61 9.19-0.57 7.84-0.54 6.57-0.45 5.3-0.37 4.21-0.26 3.13-0.15 2.44 0ZM16.72-19.48L16.72-19.48Q17.75-19.19 18.88-19.06 20.02-18.92 21.36-18.92L21.36-18.92Q22.68-18.92 23.72-19.32 24.76-19.73 25.46-20.43 26.17-21.14 26.54-22.11 26.9-23.07 26.9-24.17L26.9-24.17Q26.9-25.2 26.62-26.17 26.34-27.15 25.72-27.89 25.1-28.64 24.08-29.09 23.07-29.54 21.61-29.54L21.61-29.54Q20.34-29.54 19.03-29.37 17.72-29.2 16.7-28.78L16.7-28.78Q16.58-28 16.53-27.06 16.48-26.12 16.48-25.1L16.48-25.1Q16.48-23.58 16.55-22.11 16.63-20.63 16.72-19.48Z" opacity="1" transform="matrix(1,0,0,1,0,0)" fill="#000000" class="wordmark-text-0" data-fill-palette-color="quaternary" id="text-0"></path></svg></g></svg></g></svg></g></svg></g><g></g></svg></g></svg></g></svg></g><defs></defs></svg><rect width="320" height="360" fill="none" stroke="none" visibility="hidden"></rect></g></svg></g></svg>